# xmcd
#
# Track frame offsets:
#	150
#	17295
#	33471
#	53273
#	71147
#	92242
#	104417
#	124105
#	138907
#	151623
#	165477
#	181917
#	195987
#
# Disc length: 2785 seconds
#
# Revision: 1
# Processed by: cddbd v1.5.1PL0 Copyright (c) Steve Scherf et al.
# Submitted via: audiograbber 1.83.01
#
DISCID=970adf0d
DTITLE=Galpao Crioulo 2003 - Galpao Crioulo 2003
DYEAR=2003
DGENRE=
TTITLE0=Vá Embora Tristeza
TTITLE1=Gaucho da Fronteira - Rindo a toa
TTITLE2=Tropeiro Velho
TTITLE3=Origens
TTITLE4=Sou Maxixeiro
TTITLE5=Ala Quitanga
TTITLE6=Rebeldia
TTITLE7=A Dança Do Xote
TTITLE8=Vanera Do Brasil
TTITLE9=Nheco Vari Nheco Fun
TTITLE10=Missioneiro
TTITLE11=Meu Jeitinho
TTITLE12=Bambolê
EXTD=Nao consegui informacoes sobre cantores mas estou procurando
EXTT0=
EXTT1=
EXTT2=
EXTT3=
EXTT4=
EXTT5=
EXTT6=
EXTT7=
EXTT8=
EXTT9=
EXTT10=
EXTT11=
EXTT12=
PLAYORDER=
